<?xml version="1.0" standalone="no"?><!DOCTYPE svg PUBLIC "-//W3C//DTD SVG 1.1//EN" "http://www.w3.org/Graphics/SVG/1.1/DTD/svg11.dtd"><svg t="1540133751505" class="icon" style="" viewBox="0 0 1024 1024" version="1.1" xmlns="http://www.w3.org/2000/svg" p-id="1038" xmlns:xlink="http://www.w3.org/1999/xlink" width="180" height="180"><defs><style type="text/css"></style></defs><path d="M702.836208 643.596397h180.308496V0c-99.75607 0-180.617126 78.220555-180.617126 174.707433v757.092216c0 1.040197 0.274338 2.01181 0.30863 3.040577V643.596397z" p-id="1039" fill="#2c2c2c"></path><path d="M702.8705 638.841209l0.034292 0.720136c0 0.537245-0.080015 1.063059-0.080015 1.600304-0.868736 111.758347-91.651675 202.095487-203.615775 202.095487-112.501345 0-203.69579-91.194445-203.695791-203.695791s91.194445-203.69579 203.695791-203.69579c59.439849 0 112.764252 25.616289 150.005603 66.229709v-19.878058s1.211658-122.628981-114.12451-183.326211c-78.346293-41.23068-148.188116-27.010839-184.995099-13.648304C211.863054 343.493743 114.781778 480.159673 114.781778 639.572776c0 212.314569 172.112655 384.427224 384.427224 384.427224 205.307525 0 372.447808-161.093422 383.28415-363.691861v-21.4555H702.8705z" p-id="1040" fill="#2c2c2c"></path></svg>